<svg viewBox="0 0 32 32" fill="none" xmlns="http://www.w3.org/2000/svg">
  <!-- Background wave -->
  <path d="M2 22 Q8 20 12 18 Q16 16 18 12 Q20 8 22 10 Q24 12 26 14 Q28 16 30 15" stroke="#4f46e5" stroke-width="1.2" stroke-linecap="round" opacity="0.15" fill="none"/>
  <!-- Mid wave -->
  <path d="M2 20 Q6 19 10 17 Q13 15 15 11 Q17 7 19 9 Q21 11 24 13 Q27 15 30 13" stroke="#4f46e5" stroke-width="1.5" stroke-linecap="round" opacity="0.35" fill="none"/>
  <!-- Primary signal -->
  <path d="M3 24 Q7 22 10 20 Q13 18 15 14 Q16 11 17 7 Q18 5 19 7 Q20 10 22 14 Q24 18 28 16" stroke="#4f46e5" stroke-width="2.2" stroke-linecap="round" stroke-linejoin="round" opacity="0.9" fill="none"/>
  <!-- Area fill -->
  <path d="M3 24 Q7 22 10 20 Q13 18 15 14 Q16 11 17 7 Q18 5 19 7 Q20 10 22 14 Q24 18 28 16 L28 28 L3 28 Z" fill="#4f46e5" opacity="0.08"/>
  <!-- Peak dot -->
  <circle cx="17.5" cy="5.5" r="2.2" fill="#4f46e5" opacity="0.85"/>
</svg>
