<svg viewBox="0 0 32 32" fill="none" xmlns="http://www.w3.org/2000/svg">
  <defs>
    <linearGradient id="fi-p1" x1="12" y1="6" x2="20" y2="26" gradientUnits="userSpaceOnUse">
      <stop offset="0%" stop-color="#a5b4fc"/>
      <stop offset="100%" stop-color="#4f46e5"/>
    </linearGradient>
    <linearGradient id="fi-p2" x1="20" y1="8" x2="12" y2="24" gradientUnits="userSpaceOnUse">
      <stop offset="0%" stop-color="#818cf8"/>
      <stop offset="100%" stop-color="#3730a3"/>
    </linearGradient>
    <linearGradient id="fi-p3" x1="8" y1="20" x2="24" y2="12" gradientUnits="userSpaceOnUse">
      <stop offset="0%" stop-color="#6366f1"/>
      <stop offset="100%" stop-color="#312e81"/>
    </linearGradient>
    <radialGradient id="fi-core" cx="16" cy="16" r="3" gradientUnits="userSpaceOnUse">
      <stop offset="0%" stop-color="#e0e7ff"/>
      <stop offset="100%" stop-color="#6366f1"/>
    </radialGradient>
  </defs>
  <!-- 6 aperture blades -->
  <path d="M16 6.5 C18.4 7.1 21.2 9.4 22.5 16 L18.2 16 C18 12.7 17.2 10.6 16 9.8 Z" fill="url(#fi-p1)" opacity="0.85"/>
  <path d="M16 6.5 C18.4 7.1 21.2 9.4 22.5 16 L18.2 16 C18 12.7 17.2 10.6 16 9.8 Z" fill="url(#fi-p2)" opacity="0.7" transform="rotate(60 16 16)"/>
  <path d="M16 6.5 C18.4 7.1 21.2 9.4 22.5 16 L18.2 16 C18 12.7 17.2 10.6 16 9.8 Z" fill="url(#fi-p3)" opacity="0.6" transform="rotate(120 16 16)"/>
  <path d="M16 6.5 C18.4 7.1 21.2 9.4 22.5 16 L18.2 16 C18 12.7 17.2 10.6 16 9.8 Z" fill="url(#fi-p1)" opacity="0.5" transform="rotate(180 16 16)"/>
  <path d="M16 6.5 C18.4 7.1 21.2 9.4 22.5 16 L18.2 16 C18 12.7 17.2 10.6 16 9.8 Z" fill="url(#fi-p2)" opacity="0.65" transform="rotate(240 16 16)"/>
  <path d="M16 6.5 C18.4 7.1 21.2 9.4 22.5 16 L18.2 16 C18 12.7 17.2 10.6 16 9.8 Z" fill="url(#fi-p3)" opacity="0.75" transform="rotate(300 16 16)"/>
  <!-- Core -->
  <circle cx="16" cy="16" r="2.5" fill="url(#fi-core)"/>
  <circle cx="15.2" cy="15.2" r="0.7" fill="white" opacity="0.4"/>
</svg>
